<svg width="14" height="18" viewBox="0 0 14 18" xmlns="http://www.w3.org/2000/svg"><title>apple</title><g fill="#A7AABE" fill-rule="evenodd"><path d="M10.215.993c0 .41-.097.864-.29 1.366-.202.502-.513.964-.935 1.386-.362.36-.723.602-1.085.723-.248.072-.596.13-1.045.17.02-.998.282-1.86.784-2.582C8.14 1.342 8.977.846 10.154.57c.008.022.016.058.026.112.01.053.02.09.025.11 0 .027.002.06.005.1.004.04.005.075.005.1z"/><path d="M13.992 12.776c-.26.837-.673 1.674-1.235 2.51-.864 1.313-1.725 1.97-2.582 1.97-.328 0-.797-.108-1.406-.322-.577-.214-1.082-.32-1.518-.32-.408 0-.884.11-1.426.33-.543.228-.984.342-1.326.342-1.018 0-2.026-.867-3.023-2.602C.492 12.936 0 11.252 0 9.632c0-1.527.378-2.78 1.135-3.757.75-.964 1.7-1.446 2.853-1.446.482 0 1.074.1 1.778.3.696.2 1.158.3 1.386.3.3 0 .78-.113 1.436-.34.683-.228 1.262-.342 1.738-.342.797 0 1.51.218 2.14.653.348.242.696.577 1.044 1.006-.53.448-.91.843-1.145 1.185-.435.63-.653 1.323-.653 2.08 0 .83.23 1.577.693 2.24.462.663.99 1.085 1.587 1.266z"/></g></svg>