<svg id="Layer_3" data-name="Layer 3" xmlns="http://www.w3.org/2000/svg" viewBox="0 0 39.75 27.92">

  <path class="status-default" d="M4.75,23.67a9.53,9.53,0,0,1,9.5-9.5h15a9.53,9.53,0,0,1,9.5,9.5h0a9.53,9.53,0,0,1-9.5,9.5h-15m0,0a9.53,9.53,0,0,1-9.5-9.5h0" transform="translate(0 -6.25)"/>
  <path class="status-default" d="M10.5,26.25A9.53,9.53,0,0,1,1,16.75H1a9.53,9.53,0,0,1,9.5-9.5h15a9.53,9.53,0,0,1,9.5,9.5h0a9.53,9.53,0,0,1-9.5,9.5h-15" transform="translate(0 -6.25)"/>


  <path class="status-top" d="M4.75,23.67a9.53,9.53,0,0,1,9.5-9.5h15a9.53,9.53,0,0,1,9.5,9.5h0a9.53,9.53,0,0,1-9.5,9.5h-15m0,0a9.53,9.53,0,0,1-9.5-9.5h0" transform="translate(0 -6.25)"/>
  <path class="status-bottom" d="M10.5,26.25A9.53,9.53,0,0,1,1,16.75H1a9.53,9.53,0,0,1,9.5-9.5h15a9.53,9.53,0,0,1,9.5,9.5h0a9.53,9.53,0,0,1-9.5,9.5h-15" transform="translate(0 -6.25)"/></svg>
