<svg data-name="Layer 3" xmlns="http://www.w3.org/2000/svg" viewBox="0 0 39.75 27.92"><path class="status-default" d="M4.75 17.42a9.53 9.53 0 0 1 9.5-9.5h15a9.53 9.53 0 0 1 9.5 9.5 9.53 9.53 0 0 1-9.5 9.5h-15m0 0a9.53 9.53 0 0 1-9.5-9.5"/><path class="status-default" d="M10.5 20A9.53 9.53 0 0 1 1 10.5 9.53 9.53 0 0 1 10.5 1h15a9.53 9.53 0 0 1 9.5 9.5 9.53 9.53 0 0 1-9.5 9.5h-15"/><path class="status-top" d="M4.75 17.42a9.53 9.53 0 0 1 9.5-9.5h15a9.53 9.53 0 0 1 9.5 9.5 9.53 9.53 0 0 1-9.5 9.5h-15m0 0a9.53 9.53 0 0 1-9.5-9.5"/><path class="status-bottom" d="M10.5 20A9.53 9.53 0 0 1 1 10.5 9.53 9.53 0 0 1 10.5 1h15a9.53 9.53 0 0 1 9.5 9.5 9.53 9.53 0 0 1-9.5 9.5h-15"/></svg>