<?xml version="1.0" encoding="UTF-8" standalone="no"?>
<svg width="40px" height="39px" viewBox="0 0 40 39" version="1.1" xmlns="http://www.w3.org/2000/svg" xmlns:xlink="http://www.w3.org/1999/xlink" xmlns:sketch="http://www.bohemiancoding.com/sketch/ns">
    <!-- Generator: Sketch 3.5 (25232) - http://www.bohemiancoding.com/sketch -->
    <title>icon</title>
    <desc>Created with Sketch.</desc>
    <defs></defs>
    <g id="Landing" stroke="none" stroke-width="1" fill="none" fill-rule="evenodd" sketch:type="MSPage">
        <g id="landing-features-03" sketch:type="MSArtboardGroup" transform="translate(-1412.000000, -524.000000)">
            <g id="Group" sketch:type="MSLayerGroup" transform="translate(-642.000000, 126.000000)">
                <g id="item" transform="translate(2054.000000, 377.000000)" sketch:type="MSShapeGroup">
                    <g id="icon" transform="translate(0.000000, 21.000000)">
                        <path d="M11.0359284,30 L11.0359284,32 L4.00002553,32 C1.79087243,32 0,30.2109725 0,27.9957423 L0,4.0042577 C0,1.79276724 1.79642476,0 4.00002553,0 L35.9999745,0 C38.2091276,0 40,1.78902751 40,4.0042577 L40,27.9957423 C40,30.2072328 38.2035752,32 35.9999745,32 L13.5436944,32 L11.0359284,34.0138533 L11.0359284,32 L9,32 L9,39 L17,32 L13.5436944,32 L16.0342093,30 L34.9925801,30 C36.6544607,30 38,28.6584255 38,27.0035095 L38,4.99649048 C38,3.3504982 36.6535323,2 34.9925801,2 L5.00741988,2 C3.34553934,2 2,3.34157448 2,4.99649048 L2,27.0035095 C2,28.6495018 3.34646775,30 5.00741988,30 L11.0359284,30 Z" id="Rectangle-344" fill="#8F94AB"></path>
                    </g>
                </g>
            </g>
        </g>
    </g>
</svg>
