<svg width="24" height="40" viewBox="0 0 24 40" xmlns="http://www.w3.org/2000/svg"><title>icon</title><path d="M14.992 26.877c.34-.073.673-.172.92-.283l7.176-3.188c.502-.224.912-.85.912-1.397v-4.02c0-.54-.448-.99-1-.99H1c-.553 0-1 .444-1 .99v4.02c0 .54.41 1.172.912 1.396l7.176 3.188c.247.11.58.21.92.284-.006.04-.008.08-.008.12v7.004c0 .552.346 1.286.772 1.64l4.456 3.715c.432.36.772.192.772-.364V27.007c0-.044-.003-.087-.008-.13zM13 36l-2-1.956V26l-9-4v-3h20v3l-9 4v10z" fill="#8F94AB" fill-rule="evenodd"/></svg>