<?xml version="1.0" encoding="UTF-8" standalone="no"?>
<svg width="14px" height="16px" viewBox="0 0 14 16" version="1.1" xmlns="http://www.w3.org/2000/svg" xmlns:xlink="http://www.w3.org/1999/xlink" xmlns:sketch="http://www.bohemiancoding.com/sketch/ns">
    <!-- Generator: Sketch 3.5 (25232) - http://www.bohemiancoding.com/sketch -->
    <title>linux</title>
    <desc>Created with Sketch.</desc>
    <defs>
        <circle id="path-1" cx="8" cy="8" r="8"></circle>
    </defs>
    <g id="Landing" stroke="none" stroke-width="1" fill="none" fill-rule="evenodd" sketch:type="MSPage">
        <g id="notebook-main" sketch:type="MSArtboardGroup" transform="translate(-718.000000, -644.000000)">
            <g id="content-+-header-+-Macbook-Space-Grey" sketch:type="MSLayerGroup" transform="translate(-480.000000, 102.000000)">
                <g id="content" transform="translate(1002.000000, 153.000000)">
                    <g id="---------+-Available-for--+-penguin-flat" transform="translate(13.000000, 388.000000)">
                        <g id="linux" transform="translate(182.000000, 1.000000)">
                            <mask id="mask-2" sketch:name="Mask" fill="white">
                                <use xlink:href="#path-1"></use>
                            </mask>
                            <use id="Mask" opacity="0" fill="#000000" sketch:type="MSShapeGroup" xlink:href="#path-1"></use>
                            <g id="penguin-flat" mask="url(#mask-2)">
                                <g transform="translate(-9.000000, 0.000000)" id="Group">
                                    <g transform="translate(4.321543, 0.000000)">
                                        <path d="M9.63633143,8.53336925 C9.8491477,8.48185172 10.0421935,8.48954938 10.304,8.4586125 C10.6199959,8.41829339 11.0046927,8.4483716 11.3378705,8.53229338 C11.288064,8.34687568 11.2565342,8.13254606 11.2511383,7.86333261 C11.236836,7.13144674 11.1853891,7.21506359 11.4289389,6.63568043 C11.6583923,6.10186793 12.1478585,5.35408533 13.1844116,5.44618043 C13.8581608,5.49916957 14.1243473,5.63683533 14.5912797,6.4905962 C15.0868167,7.38240326 15.079717,8.14502283 14.9018135,8.83144402 C14.7955525,9.24207925 14.6344767,9.55933938 14.3393188,9.78460141 C14.7139327,9.97184255 14.9661773,10.2272872 14.9388553,10.6394755 C14.8719743,11.714625 14.5685402,12.1954484 13.7026881,12.4772446 C13.0066109,12.6985272 11.7622122,13.9410163 10.7996399,13.9410163 C10.3707781,13.9410163 9.77028939,13.9643315 9.42271383,13.835038 C9.08954341,13.7122092 8.62250804,13.1328261 8.07552412,12.6678995 C7.52740836,12.2102853 7.01633441,11.7219375 7.00182637,11.081087 C6.98225991,10.4924724 7.30381033,10.2480407 7.78607789,9.83960352 C7.61131819,9.67568204 7.45986099,9.44212211 7.36380707,9.1523462 C7.16439871,8.54233533 7.09041801,8.19896576 7.11295177,7.29878641 C7.12015434,6.96304728 7.20864309,6.64309891 7.31976849,6.39108261 C7.49036656,6.01825109 7.7423537,5.76602283 7.93466238,5.73539511 C8.2678328,5.67509348 8.80051447,5.69724293 9.13368489,6.17064783 C9.48228939,6.66652011 9.71163987,6.92489511 9.71163987,7.68751467 C9.71508892,8.06026645 9.6897526,8.31403645 9.63633143,8.53336925 Z M20.2626881,34.4331848 C18.9444116,36.3471522 19.1078071,38.0703587 16.6716913,37.3999402 C14.2426752,36.728462 13.5618264,36.850231 11.0517299,37.0027337 C8.55675884,37.1552364 9.09674598,36.9264293 7.53461093,37.6510027 C5.97978135,38.3753641 0.759737621,28.8661467 0.338088746,27.0962038 C-0.077407074,25.3273207 0.00234598071,25.1074158 0.803992283,23.0519674 C1.46630997,21.3531359 2.25139035,19.3917962 3.46955113,17.5030516 C4.94835241,15.21 6.54950482,13.9950652 6.43117685,12.2177038 C5.96534534,5.62093859 5.59513312,2.32692228 8.43750482,0.801577174 C11.1482444,-0.64725375 13.413865,0.21381962 14.3095563,0.709479946 C14.6941736,0.923454293 15.4797685,1.33549565 16.0638971,2.05996304 C16.6489518,2.76863967 17.1745338,3.84474293 17.4706624,5.20158261 C18.0783537,7.9248 17.2198071,7.0244087 17.9077556,10.1436668 C18.5895305,13.2545951 19.9736592,14.7798342 21.6622508,17.2435109 C23.3498135,19.7072935 25.1124887,23.7713478 24.549865,26.1206739 C24.0603987,28.1944565 21.5800386,32.5266359 20.2626881,34.4331848 Z" id="Shape" fill="#A7AABE" sketch:type="MSShapeGroup"></path>
                                        <g transform="translate(19.035370, 15.578804)" id="Shape" fill="#000000" sketch:type="MSShapeGroup">
                                            <path d="M0.464463023,0.320160326 C0.533401929,0.270668478 0.541118971,0.195953804 0.485453376,0.112125 C0.429273312,0.0274483696 0.350559486,0.00254347826 0.285118971,0.0485380435 C0.229967846,0.087326087 0.223073955,0.135016304 0.259909968,0.235271739 L0.283061093,0.298328804 C0.300347267,0.345171196 0.296745981,0.37113587 0.271125402,0.389046196 C0.238199357,0.412467391 0.193440514,0.394027174 0.159691318,0.343369565 C0.13911254,0.312211957 0.130366559,0.27967663 0.13540836,0.254665761 C0.139524116,0.238557065 0.146932476,0.22732337 0.169569132,0.206233696 L0.129028939,0.145296196 C0.0493890675,0.20538587 0.0415691318,0.280100543 0.104745981,0.375057065 C0.165453376,0.466622283 0.247974277,0.494070652 0.315884244,0.446168478 C0.368463023,0.409182065 0.377106109,0.3583125 0.346135048,0.274271739 L0.322057878,0.209836957 C0.301581994,0.155046196 0.303022508,0.124524457 0.32792283,0.106932065 C0.360231511,0.0842527174 0.400874598,0.0993016304 0.432257235,0.146461957 C0.463022508,0.192986413 0.460038585,0.231668478 0.42392283,0.259222826 L0.464463023,0.320160326 L0.464463023,0.320160326 Z"></path>
                                            <path></path>
                                        </g>
                                    </g>
                                    <g transform="translate(7.305466, 11.339674)">
                                        <path d="M3.96748553,6.75007337 C3.92005145,6.96033424 3.21625723,7.05921196 2.71595627,7.35234783 C2.41077299,7.53123913 2.25005273,7.80084783 1.83261222,8.15651087 C1.4151717,8.51206793 3.22983923,3.9082663 3.12715113,4.50344022 C3.02446302,5.09882609 2.82739035,5.42704076 2.9310045,5.78482337 C3.11500965,6.42005707 4.01491961,6.53970652 3.96748553,6.75007337 L3.96748553,6.75007337 Z" id="Shape" fill="#000000" sketch:type="MSShapeGroup"></path>
                                    </g>
                                    <g transform="translate(11.729904, 6.888587)">
                                        <path d="M0.785389068,0.0744603261 C1.00753698,0.0744603261 1.28833441,0.226857065 1.42209646,0.433408696 C1.56285531,0.638900543 1.66677814,0.929175 1.66677814,1.25643587 C1.66677814,1.7447837 1.61440514,2.28601467 1.33350482,2.45430815 C1.24409003,2.50740326 1.05178135,2.55286793 0.940758842,2.55286793 C0.688771704,2.55286793 0.667163987,2.38552826 0.429581994,2.13351196 C0.348398714,2.04237065 0.103511254,1.59959348 0.103511254,1.23418043 C0.103511254,1.00547935 0.0522700965,0.677052717 0.244578778,0.387944022 C0.378237942,0.173973913 0.547807074,0.0744603261 0.785389068,0.0744603261 Z M0.835909968,0.474846196 C0.877993569,0.391335326 1.08450161,0.412425 1.17535691,0.569378804 C1.26559486,0.731949457 1.28102894,1.10594674 1.23256592,1.12205543 C1.10405145,1.17313696 1.11300322,0.950158696 0.995292605,0.801895109 C0.883858521,0.652359783 0.793620579,0.563973913 0.835909968,0.474846196 Z" id="Shape" fill="#A7AABE" sketch:type="MSShapeGroup"></path>
                                        <path d="M5.70207074,0.044786413 C6.25738907,0.044786413 6.58232797,0.555283696 6.69335048,1.2109712 C6.73862379,1.50845217 6.67184566,1.85160978 6.49383923,2.0879413 C6.29432797,2.36221304 5.9385209,2.53071848 5.64959486,2.53071848 C5.37610289,2.53071848 5.06454019,2.57618315 4.90196785,2.34748207 C4.7393955,2.11115054 4.70245659,1.5848625 4.70245659,1.2109712 C4.70245659,0.791509239 4.82078457,0.493816304 5.02749839,0.257696739 C5.18369132,0.082938587 5.46448875,0.044786413 5.70207074,0.044786413 Z M5.82029582,0.402780978 C5.87894534,0.341313587 6.00550482,0.402780978 6.14636656,0.562702174 C6.29432797,0.731207609 6.29432797,0.867813587 6.17517685,0.959908696 C6.06405145,1.05846848 6.01980707,0.814824457 5.94572347,0.72262337 C5.81309325,0.586017391 5.70207074,0.517131522 5.82029582,0.402780978 Z" id="Shape" fill="#A7AABE" sketch:type="MSShapeGroup"></path>
                                    </g>
                                    <g transform="translate(11.421222, 10.267894)">
                                        <path d="M1.44884887,1.87859265 C1.27742765,1.81479373 1.10847588,1.7135845 1.04159486,1.6521171 C0.805144695,1.49887254 0.385749196,1.08439156 0.242623794,0.989117104 C0.198379421,0.974280148 0.0752154341,0.983606235 0.101762058,1.07273395 C0.176257235,1.32273667 0.334713826,1.47195406 0.545337621,1.64607634 C0.802572347,1.85866873 1.11948553,2.06956547 1.39668167,2.21263613 C1.55976849,2.29699482 1.9671254,2.39258721 1.9671254,2.39258721 C2.35894534,2.44557634 2.72308682,2.43063341 2.95953698,2.43063341 C3.51485531,2.43063341 4.2038328,2.19451384 4.92892605,1.8354595 C5.6404373,1.47004645 5.81021222,1.32485623 6.3141865,1.02726928 C6.8025209,0.745473082 7.41762058,0.379000256 7.20257235,0.2720258 C6.98762701,0.157675256 6.77278457,0.317490474 6.06929904,0.752891561 C5.38865595,1.179772 4.92172347,1.44673123 4.24097749,1.75173667 C3.9293119,1.88940243 3.51485531,2.05684808 3.20432154,2.08005732 C2.90819293,2.10241873 2.52254662,2.09489428 2.29319614,2.09489428 C2.02690675,2.09489428 1.72913183,1.9826633 1.44884887,1.87859265 L1.44884887,1.87859265 Z" id="Shape" fill="#A7AABE" sketch:type="MSShapeGroup"></path>
                                    </g>
                                </g>
                            </g>
                        </g>
                    </g>
                </g>
            </g>
        </g>
    </g>
</svg>