<svg width="14" height="16" viewBox="0 0 14 16" xmlns="http://www.w3.org/2000/svg" xmlns:xlink="http://www.w3.org/1999/xlink"><title>linux</title><defs><circle id="a" cx="8" cy="8" r="8"/></defs><g transform="translate(-1)" fill="none" fill-rule="evenodd"><mask id="b" fill="#fff"><use xlink:href="#a"/></mask><g mask="url(#b)"><path d="M4.958 8.533c.213-.05.406-.043.668-.074.316-.042.7-.012 1.033.072-.05-.185-.082-.4-.087-.67-.015-.73-.066-.647.177-1.226.23-.534.72-1.282 1.756-1.19.674.053.94.19 1.407 1.045.495.892.488 1.655.31 2.34-.106.412-.267.73-.562.955.375.187.628.442.6.854-.066 1.075-.37 1.555-1.236 1.837-.696.222-1.94 1.464-2.903 1.464-.428 0-1.028.024-1.376-.105-.333-.123-.8-.702-1.347-1.167-.548-.458-1.06-.946-1.074-1.587-.02-.588.302-.832.785-1.24-.175-.164-.327-.398-.423-.688-.2-.61-.273-.953-.25-1.853.007-.337.095-.657.206-.91.172-.372.424-.624.616-.655.333-.06.866-.038 1.2.436.348.497.577.755.577 1.518.004.372-.022.626-.075.845zm10.626 25.9c-1.318 1.914-1.155 3.637-3.59 2.967-2.43-.672-3.11-.55-5.62-.397-2.496.152-1.956-.077-3.518.648-1.555.725-6.775-8.784-7.196-10.554-.416-1.77-.336-1.99.466-4.044.662-1.7 1.447-3.66 2.665-5.55 1.48-2.292 3.08-3.507 2.963-5.284C1.287 5.62.917 2.328 3.76.802 6.47-.648 8.734.214 9.63.71c.386.213 1.17.625 1.755 1.35.585.71 1.11 1.785 1.407 3.142.608 2.723-.25 1.822.437 4.942.68 3.11 2.065 4.636 3.754 7.1 1.687 2.463 3.45 6.527 2.887 8.877-.488 2.074-2.968 6.407-4.286 8.313z" fill="#A7AABE"/><path d="M14.82 15.9c.07-.05.078-.125.022-.21-.056-.084-.135-.11-.2-.063-.055.04-.062.087-.025.187l.023.063c.017.047.014.073-.012.09-.033.024-.078.006-.11-.045-.022-.03-.03-.064-.026-.09.004-.015.012-.026.034-.047l-.04-.06c-.08.06-.088.134-.024.23.06.09.143.118.21.07.053-.037.062-.088.03-.172l-.023-.064c-.022-.056-.02-.087.005-.104.032-.023.073-.008.104.04.03.046.027.084-.01.112l.04.06zM2.273 18.09c-.047.21-.75.31-1.252.602-.304.18-.464.45-.882.804-.417.356 1.397-4.248 1.295-3.653-.103.596-.3.924-.197 1.28.184.637 1.084.756 1.037.967z" fill="#000"/><g fill="#A7AABE"><path d="M3.515 6.963c.222 0 .503.152.637.36.14.204.245.495.245.822 0 .488-.053 1.03-.334 1.198-.09.053-.28.098-.392.098-.25 0-.273-.166-.51-.418-.082-.09-.327-.534-.327-.9 0-.228-.05-.556.14-.845.135-.214.305-.314.542-.314zm.05.4c.043-.083.25-.062.34.095.09.163.106.537.057.553-.128.052-.12-.17-.237-.32-.11-.15-.2-.237-.16-.327zM8.432 6.933c.555 0 .88.51.99 1.167.047.297-.02.64-.198.877-.2.274-.556.442-.845.442-.274 0-.586.045-.748-.184-.163-.236-.2-.763-.2-1.136 0-.42.12-.718.325-.954.157-.174.437-.213.675-.213zm.118.358c.06-.06.185 0 .326.16.148.17.148.306.03.398-.112.1-.156-.145-.23-.237-.133-.135-.244-.204-.126-.32z"/></g><g><path d="M3.87 12.146c-.17-.063-.34-.165-.407-.226-.237-.153-.656-.568-.8-.663-.043-.015-.167-.005-.14.084.074.25.233.4.444.574.257.213.574.423.85.567.164.085.57.18.57.18.393.053.757.04.994.04.556 0 1.245-.238 1.97-.597.712-.365.88-.51 1.385-.808.49-.282 1.104-.648.89-.755-.216-.114-.43.045-1.134.48-.68.428-1.147.695-1.828 1-.31.137-.726.305-1.036.328-.297.022-.682.015-.912.015-.266 0-.564-.112-.844-.217z" fill="#A7AABE"/></g></g></g></svg>