<svg width="64" height="26" viewBox="0 0 64 26" xmlns="http://www.w3.org/2000/svg"><title>logo-color</title><g fill="none" fill-rule="evenodd"><path d="M12.056 17.343h-1.1v8.655H17.6v-2.144h-4.445v-1.112h3.026v-2.144h-3.025v-1.11H17.6v-2.145h-5.544zM47.14 17.342v8.656h6.643v-2.15h-4.448v-6.506H47.14zM37.71 21.75h1.383v.003c.31 0 .61-.122.83-.338.223-.213.35-.506.35-.813h-.003V20.6h.004c0-.306-.126-.598-.347-.812-.222-.218-.52-.34-.834-.342v.004-.004H37.71v2.303zm-.004 4.248h-2.16v-8.65h3.547v-.003.004c.88-.002 1.726.34 2.353.95.626.607.98 1.436.98 2.3h.005v.004h-.003c0 .864-.353 1.69-.976 2.295-.627.612-1.475.956-2.357.955v.004h-1.386V26v-.002zM2.16 21.75h1.386v.003c.31 0 .61-.122.83-.338.222-.214.348-.507.35-.813h-.004V20.6h.005c-.002-.306-.127-.598-.348-.812-.222-.218-.522-.34-.834-.342v.004-.004H2.16v2.303zm0 4.248H0v-8.65h3.546v-.003.004c.88-.002 1.725.34 2.353.95.624.607.978 1.436.98 2.3h.006v.004H6.88c0 .863-.35 1.69-.974 2.295-.628.612-1.475.956-2.358.955v.004H2.16V26v-.002zM26.21 19.483v.004h.004v-.004c.592 0 1.16.23 1.583.64.42.407.658.963.66 1.544h-.007v.003h.004c0 .58-.24 1.136-.66 1.54-.42.414-.988.646-1.58.646v-.004h-.003v.004c-.592 0-1.16-.232-1.58-.644-.42-.406-.66-.962-.66-1.543h.004v-.004h-.005c0-.58.24-1.136.66-1.542.42-.412.988-.643 1.58-.644v.003zm0-2.143v.004c-1.172-.003-2.297.45-3.133 1.264-.83.806-1.296 1.908-1.295 3.058h-.004v.002h.004c0 1.15.466 2.253 1.295 3.06.836.812 1.962 1.265 3.134 1.262v.005h.003v-.005c1.173.004 2.3-.45 3.136-1.264.828-.806 1.294-1.907 1.294-3.057h.004v-.003h-.004c0-1.15-.466-2.253-1.296-3.06h-.004c-.834-.81-1.96-1.265-3.13-1.263v-.004h-.003zM58.45 17.343h-1.1v8.654h6.644v-2.143H59.55v-1.112h3.024v-2.144H59.55v-1.112h4.444v-2.143H58.45z" fill="#D9D7D5"/><path d="M34.088.02l-9.4 13.113h3.66l1.475-2.05 5.058-.013v2.05h3.33V.004L34.088.02zm.93 8.04h-2.904l2.92-3.934-.017 3.934zM7.996 4.92H5.508c-.46 0-.83-.368-.83-.82 0-.454.372-.82 1.272-.82h4.17L11.78 0H5.95C2.77 0 1.36 2.05 1.36 4.1c0 1.98 1.572 4.097 4.148 4.097h2.488c.458 0 .83.367.83.82 0 .452-.372.82-.83.82H2.052l-1.66 3.278h7.604c1.156 0 2.216-.42 2.984-1.18.767-.76 1.186-1.803 1.186-2.94 0-2.35-1.793-4.076-4.17-4.076zM41.243 6.148h4.496v.006c.368-.002.72-.154.973-.42.264-.27.413-.63.415-1.007h-.007v-.004h.008c0-.373-.147-.732-.408-1-.253-.27-.606-.423-.977-.427v.006h-4.498L39.438.046l6.3.005h.002V.06c1.208.004 2.36.497 3.192 1.363.857.89 1.333 2.072 1.33 3.3h.006v.004h-.006c.004 1.225-.47 2.403-1.323 3.29-.748.772-1.982 1.276-3.1 1.36l4.177 3.783H45.4l-4.157-3.765V6.148zM50.084.012c1.01.855 1.72 2.002 2.03 3.28h2.922v9.834l3.73-.003V3.288l3.152.003L63.994.013h-13.91zM24.425.012L21.063 4.11 17.745.012h-3.732v13.114h3.326l-.01-7.787 3.733 4.3 3.732-4.243v4.865l3.362-4.55V.048L24.425.012z" fill="#C22821"/></g></svg>