<svg width="33" height="34" viewBox="0 0 33 34" xmlns="http://www.w3.org/2000/svg" xmlns:xlink="http://www.w3.org/1999/xlink"><title>icon</title><defs><path d="M8 16c4.418 0 8-3.582 8-8s-3.582-8-8-8-8 3.582-8 8 3.582 8 8 8zm0-2c3.314 0 6-2.686 6-6s-2.686-6-6-6-6 2.686-6 6 2.686 6 6 6z" id="a"/></defs><g fill="none" fill-rule="evenodd"><g transform="translate(6 6)"><mask id="b" fill="#fff"><use xlink:href="#a"/></mask><use xlink:href="#a"/><path d="M7.062-.332l-.01 16.376-5.908-1.006s-2.29-6.136-2.29-6.354c0-.217.06-4.36.06-4.36S2.188.89 2.464.614C2.743.34 6.235-1.08 6.235-1.08l.828.75z" fill="#5DD572" mask="url(#b)"/></g><path d="M13.016 8.063c.552 0 1-.448 1-1 0-.553-.448-1-1-1-.553 0-1 .447-1 1 0 .552.447 1 1 1zM13 21.938c.552 0 1-.448 1-1 0-.553-.448-1-1-1s-1 .447-1 1c0 .552.448 1 1 1z" fill="#5DD572"/></g></svg>