<svg width="40" height="40" viewBox="0 0 40 40" xmlns="http://www.w3.org/2000/svg" xmlns:xlink="http://www.w3.org/1999/xlink"><title>icon</title><g fill="none" fill-rule="evenodd"><mask id="a" fill="#fff"><use xlink:href="#path-1"/></mask><use fill="#8F94AB" xlink:href="#path-1"/><path d="M19.99-.97l.1 7.004S35.015 20 35.05 19.998c2.368-.027 7.446 0 7.446 0L39.978 2.78 31.07-1.084 19.99-.97z" fill="#5DD572" mask="url(#a)"/><circle fill="#5DD572" mask="url(#a)" cx="20" cy="1" r="1"/><circle fill="#5DD572" mask="url(#a)" cx="39" cy="20" r="1"/><rect fill="#8F94AB" x="18" y="10" width="2" height="12" rx="100"/><path d="M25.79 20c.558 0 1.01.444 1.01 1 0 .552-.443 1-1.002 1H19c-.552 0-1-.444-1-1 0-.552.448-1 1.01-1h6.78z" fill="#8F94AB"/></g></svg>